<?xml version="1.0" encoding="UTF-8" standalone="no"?>
<!-- Generator: Adobe Illustrator 20.1.0, SVG Export Plug-In . SVG Version: 6.00 Build 0)  -->
<svg id="Layer_1" style="enable-background:new 0 0 224 90.1" xmlns="http://www.w3.org/2000/svg" xml:space="preserve" viewBox="0 0 224 90.1" version="1.1" y="0px" x="0px" xmlns:xlink="http://www.w3.org/1999/xlink">
<style type="text/css">
	.st0{fill:#919191;}
	.st1{fill:#ED2224;}
	.st2{fill:#F69E1D;}
	.st3{fill:#19AC5B;}
	.st4{fill:#8150A0;}
	.st5{fill:#347FC2;}
</style>
<title>Artboard 1 copy</title>
	<path class="st0" d="m78.3 17v22.3c0 2.2-0.2 4.4-0.8 6.6-0.5 1.7-1.4 3.3-2.6 4.5-1.3 1.3-2.9 2.2-4.7 2.7-2.4 0.6-4.8 0.9-7.2 0.9s-4.8-0.3-7.1-1.1c-1.9-0.6-3.5-1.6-4.9-2.9-1-0.9-1.6-2.2-1.7-3.6 0-0.9 0.3-1.7 1-2.3 0.6-0.6 1.5-0.9 2.3-0.9 1.2 0 2.2 0.6 2.9 1.5l1.3 1.5c0.4 0.5 0.9 1 1.5 1.4s1.2 0.7 1.9 0.8c0.8 0.2 1.7 0.3 2.6 0.3 1.6 0.1 3.2-0.2 4.6-0.8 1-0.5 1.8-1.3 2.3-2.3 0.4-1 0.7-2.1 0.8-3.2s0.1-3 0.2-5.5c-1.1 1.5-2.5 2.8-4.1 3.8-1.7 0.9-3.6 1.3-5.5 1.3-2.4 0-4.7-0.7-6.7-2-2-1.4-3.5-3.3-4.4-5.5-1.1-2.6-1.6-5.4-1.5-8.2 0-2.1 0.3-4.2 0.9-6.2 0.6-1.7 1.5-3.3 2.7-4.7 1.1-1.2 2.5-2.2 4-2.9 1.6-0.7 3.3-1 5-1 2 0 3.9 0.4 5.6 1.2 1.7 1 3.3 2.3 4.4 3.9v-1c-0.1-1.1 0.3-2.2 1-3.1 0.6-0.7 1.6-1.1 2.5-1.1 1.2-0.2 2.3 0.4 2.9 1.4 0.6 1.3 0.8 2.7 0.7 4.1m-22.2 9.6c-0.2 2.5 0.5 5 2 7 1.3 1.6 3.2 2.4 5.3 2.4 1.3 0 2.5-0.4 3.6-1 1.2-0.7 2.2-1.8 2.8-3.1 0.7-1.6 1.1-3.3 1.1-5 0.2-2.6-0.6-5.2-2.1-7.3-1.3-1.7-3.3-2.7-5.4-2.6-2.1-0.1-4 0.9-5.3 2.5-1.4 2.1-2.1 4.6-2 7.1"/>
	<path class="st0" d="m127.2 27c0 2.2-0.3 4.3-1.1 6.3-0.7 1.9-1.7 3.6-3.1 5s-3 2.5-4.8 3.2c-2 0.8-4.2 1.1-6.3 1.1s-4.3-0.3-6.3-1.1c-3.7-1.5-6.6-4.4-7.9-8.2-1.4-4.1-1.4-8.6 0-12.7 0.7-1.8 1.7-3.5 3.1-4.9s3-2.5 4.8-3.2c4.1-1.5 8.5-1.5 12.6 0 1.8 0.7 3.5 1.8 4.9 3.2s2.4 3.1 3.1 4.9c0.7 2.1 1 4.2 1 6.4m-7.7 0c0.2-2.6-0.6-5.2-2.1-7.3-1.3-1.7-3.4-2.7-5.5-2.6-1.4 0-2.8 0.4-4 1.2-1.2 0.9-2.1 2.1-2.6 3.4-1.2 3.4-1.2 7.1 0 10.6 0.5 1.4 1.4 2.6 2.6 3.5 1.2 0.8 2.6 1.2 4 1.2 2.2 0.1 4.2-0.9 5.5-2.6 1.5-2.2 2.3-4.8 2.1-7.4"/>
	<path class="st0" d="m168.4 38.2v-0.8c-0.9 1.1-1.9 2-3 2.9-1 0.7-2.1 1.3-3.3 1.7s-2.5 0.6-3.8 0.6c-1.8 0-3.5-0.4-5.1-1.2s-3-1.9-4.1-3.3c-1.2-1.5-2.1-3.2-2.6-5.1-0.6-2-0.9-4.2-0.9-6.3 0-4.8 1.2-8.5 3.5-11.2s5.7-4.1 9.2-4c1.9-0.1 3.8 0.3 5.5 1.1 1.7 0.9 3.2 2.1 4.4 3.5v-11.3c-0.1-1.3 0.2-2.5 0.9-3.6 0.6-0.8 1.6-1.3 2.7-1.2 1-0.1 2 0.3 2.7 1.1 0.7 0.9 1 2.1 0.9 3.3v33.8c0.1 1.2-0.3 2.4-1 3.3-0.7 0.7-1.6 1.1-2.6 1.1s-1.9-0.4-2.6-1.1c-0.6-1-1-2.1-0.8-3.3m-15.2-11.3c0 1.8 0.3 3.6 1 5.3 0.5 1.3 1.5 2.5 2.7 3.3 1.1 0.7 2.4 1.1 3.7 1.1s2.6-0.4 3.7-1.1c1.2-0.8 2.1-1.9 2.7-3.2 0.7-1.7 1.1-3.6 1-5.4 0-1.8-0.3-3.6-1-5.3-0.6-1.4-1.5-2.5-2.8-3.4-1.1-0.8-2.4-1.2-3.7-1.2s-2.7 0.4-3.8 1.2c-1.2 0.9-2.1 2.1-2.6 3.4-0.7 1.8-1 3.6-0.9 5.3"/>
	<path class="st0" d="m215.6 38.2c-1.6 1.3-3.4 2.4-5.4 3.2-1.9 0.7-3.8 1.1-5.8 1.1-1.8 0-3.6-0.4-5.2-1.2-1.4-0.7-2.6-1.8-3.4-3.2-0.8-1.3-1.2-2.8-1.2-4.3 0-2 0.7-3.9 2-5.4 1.5-1.6 3.4-2.6 5.5-3l3.6-0.8c1.9-0.4 3.6-0.7 5-1.1s2.9-0.7 4.5-1.2c0-1.6-0.4-3.1-1.2-4.5-0.7-0.9-2.2-1.4-4.5-1.4-1.5-0.1-3 0.2-4.4 0.8-1 0.6-1.9 1.4-2.5 2.4-0.7 1.1-1.2 1.8-1.5 2.1-0.5 0.4-1.2 0.6-1.9 0.5-0.8 0-1.6-0.3-2.2-0.8s-1-1.3-0.9-2.1c0-1.4 0.5-2.8 1.4-3.9 1.2-1.4 2.7-2.5 4.5-3.1 2.4-0.9 5-1.3 7.5-1.2 2.7-0.1 5.4 0.3 7.9 1.2 1.8 0.7 3.3 2 4.1 3.8 0.9 2.2 1.3 4.5 1.2 6.9v4.6s0 2.7 0 4.1c0 1.5 0.3 3 0.7 4.5 0.3 1 0.6 2 0.7 3 0 0.9-0.4 1.6-1.1 2.2s-1.6 1-2.5 1-1.7-0.4-2.3-1.1c-1.1-0.8-1.9-1.8-2.6-3.1m-0.5-11c-1.6 0.5-3.2 1-4.9 1.3-2.1 0.5-3.6 0.8-4.5 1s-1.7 0.7-2.4 1.3c-0.8 0.7-1.2 1.6-1.1 2.6 0 1.1 0.5 2.2 1.4 3 1 0.8 2.2 1.3 3.5 1.2 1.4 0 2.9-0.3 4.1-1 1.1-0.6 2.1-1.5 2.8-2.6 0.8-1.8 1.2-3.8 1-5.7l0.1-1.1z"/>
	<path class="st0" d="m21 38.2c-1.6 1.3-3.5 2.4-5.4 3.2-1.9 0.7-3.8 1.1-5.8 1.1-1.8 0-3.6-0.4-5.2-1.2-1.4-0.7-2.6-1.8-3.4-3.2-0.8-1.3-1.2-2.8-1.2-4.3 0-2 0.7-3.9 2-5.4 1.5-1.6 3.4-2.6 5.5-3l3.6-0.8c1.9-0.4 3.6-0.7 5-1.1 1.4-0.3 2.9-0.7 4.5-1.2 0-1.6-0.4-3.1-1.2-4.5-0.7-0.9-2.2-1.4-4.5-1.4-1.5-0.1-3 0.2-4.4 0.8-1 0.6-1.9 1.4-2.5 2.4-0.7 1.1-1.2 1.8-1.5 2.1-0.5 0.4-1.2 0.6-1.9 0.5-0.8 0-1.6-0.3-2.2-0.8s-1-1.3-0.9-2.1c0-1.4 0.5-2.8 1.4-3.9 1.2-1.5 2.8-2.6 4.6-3.2 2.4-0.9 5-1.3 7.6-1.2 2.7-0.1 5.4 0.3 7.9 1.2 1.8 0.7 3.3 2 4.1 3.8 0.9 2.2 1.3 4.5 1.2 6.9v4.6s0 2.7 0 4.1c0 1.5 0.3 3 0.7 4.5 0.3 1 0.6 2 0.7 3 0 0.8-0.4 1.6-1.1 2.2s-1.6 1-2.5 1-1.7-0.4-2.3-1.1c-0.9-1-1.8-2.1-2.4-3.2m-0.7-10.8c-1.6 0.5-3.2 1-4.9 1.3-2.1 0.5-3.6 0.8-4.5 1s-1.7 0.7-2.4 1.3c-0.8 0.7-1.2 1.6-1.1 2.6 0 1.1 0.5 2.2 1.4 3 1 0.8 2.2 1.3 3.5 1.2 1.4 0 2.9-0.3 4.1-1 1.2-0.6 2.2-1.5 2.8-2.6 0.8-1.8 1.2-3.8 1-5.7l0.1-1.1z"/>
	<circle cy="75.4" cx="14.7" r="14.7" class="st1"/>
	<circle cy="75.4" cx="63.3" r="14.7" class="st2"/>
	<circle cy="75.4" cx="112" r="14.7" class="st3"/>
	<circle cy="75.4" cx="160.6" r="14.7" class="st4"/>
	<circle cy="75.4" cx="209.3" r="14.7" class="st5"/>
</svg>
